<?xml version="1.0" encoding="UTF-8" standalone="no"?>
<!-- (c) ammap.com | SVG weather icons -->

<!-- Mix of Rain and Snow | Contributed by hsoJ95 on GitHub: https://github.com/hsoj95 -->

<svg
   width="56"
   height="48"
   version="1.1"
   id="svg8"
   sodipodi:docname="FreezingRain.svg"
   inkscape:version="1.3.2 (091e20e, 2023-11-25, custom)"
   xmlns:inkscape="http://www.inkscape.org/namespaces/inkscape"
   xmlns:sodipodi="http://sodipodi.sourceforge.net/DTD/sodipodi-0.dtd"
   xmlns="http://www.w3.org/2000/svg"
   xmlns:svg="http://www.w3.org/2000/svg">
  <sodipodi:namedview
     id="namedview8"
     pagecolor="#505050"
     bordercolor="#ffffff"
     borderopacity="1"
     inkscape:showpageshadow="0"
     inkscape:pageopacity="0"
     inkscape:pagecheckerboard="1"
     inkscape:deskcolor="#505050"
     inkscape:zoom="8.46875"
     inkscape:cx="24.442804"
     inkscape:cy="19.070111"
     inkscape:window-width="1920"
     inkscape:window-height="1009"
     inkscape:window-x="1912"
     inkscape:window-y="-8"
     inkscape:window-maximized="1"
     inkscape:current-layer="svg8" />
  <defs
     id="defs2">
    <filter
       id="blur"
       x="-0.24683544"
       y="-0.23450377"
       width="1.4936709"
       height="1.5712271">
      <feGaussianBlur
         in="SourceAlpha"
         stdDeviation="3"
         id="feGaussianBlur1" />
      <feOffset
         dx="0"
         dy="4"
         result="offsetblur"
         id="feOffset1" />
      <feComponentTransfer
         id="feComponentTransfer1">
        <feFuncA
           slope="0.05"
           type="linear"
           id="feFuncA1" />
      </feComponentTransfer>
      <feMerge
         id="feMerge2">
        <feMergeNode
           id="feMergeNode1" />
        <feMergeNode
           in="SourceGraphic"
           id="feMergeNode2" />
      </feMerge>
    </filter>
  </defs>
  <g
     id="g8"
     transform="matrix(1.0268224,0,0,1.0268224,-0.8667854,0.4861453)">
    <g
       class="am-weather-cloud-3"
       id="g2"
       transform="matrix(1.3395644,0,0,1.3395644,12.769951,-11.977866)"
       style="filter:url(#blur)">
      <path
         transform="translate(-20,-11)"
         d="m 47.7,35.4 c 0,-4.6 -3.7,-8.2 -8.2,-8.2 -1,0 -1.9,0.2 -2.8,0.5 -0.3,-3.4 -3.1,-6.2 -6.6,-6.2 -3.7,0 -6.7,3 -6.7,6.7 0,0.8 0.2,1.6 0.4,2.3 -0.3,-0.1 -0.7,-0.1 -1,-0.1 -3.7,0 -6.7,3 -6.7,6.7 0,3.6 2.9,6.6 6.5,6.7 h 17.2 c 4.4,-0.5 7.9,-4 7.9,-8.4 z"
         fill="#57a0ee"
         stroke="#ffffff"
         stroke-linejoin="round"
         stroke-width="1.2"
         id="path2" />
    </g>
    <g
       class="am-weather-snow-1"
       transform="matrix(1.8989229,0,0,1.8989229,27.156061,22.890749)"
       fill="none"
       stroke="#57a0ee"
       stroke-linecap="round"
       id="g5"
       style="filter:url(#blur)">
      <line
         transform="translate(0,9)"
         y1="-2.5"
         y2="2.5"
         stroke-width="1.2"
         id="line2"
         x1="0"
         x2="0" />
      <line
         transform="rotate(45,-10.864,4.5)"
         y1="-2.5"
         y2="2.5"
         id="line3"
         x1="0"
         x2="0" />
      <line
         transform="rotate(90,-4.5,4.5)"
         y1="-2.5"
         y2="2.5"
         id="line4"
         x1="0"
         x2="0" />
      <line
         transform="rotate(135,-1.864,4.5)"
         y1="-2.5"
         y2="2.5"
         id="line5"
         x1="0"
         x2="0" />
    </g>
    <g
       class="am-weather-rain-2"
       transform="matrix(1.3062244,0.30713362,-0.23032261,1.7418414,30.806652,36.902903)"
       fill="none"
       stroke="#91c0f8"
       stroke-dasharray="4, 7"
       stroke-linecap="round"
       stroke-width="2"
       id="g7"
       style="filter:url(#blur)">
      <line
         class="am-weather-rain-1"
         transform="translate(-10,1)"
         y2="8"
         id="line6"
         x1="0"
         y1="0"
         x2="0" />
      <line
         class="am-weather-rain-2"
         transform="translate(5,-1)"
         y2="8"
         id="line7"
         x1="0"
         y1="0"
         x2="0" />
    </g>
  </g>
</svg>
