<?xml version="1.0" encoding="UTF-8" standalone="no"?>
<svg
   width="56"
   height="48"
   version="1.1"
   id="svg1"
   sodipodi:docname="MainlyClearDay.svg"
   inkscape:version="1.3.2 (091e20e, 2023-11-25, custom)"
   xmlns:inkscape="http://www.inkscape.org/namespaces/inkscape"
   xmlns:sodipodi="http://sodipodi.sourceforge.net/DTD/sodipodi-0.dtd"
   xmlns="http://www.w3.org/2000/svg"
   xmlns:svg="http://www.w3.org/2000/svg">
  <defs
     id="defs1" />
  <sodipodi:namedview
     id="namedview1"
     pagecolor="#505050"
     bordercolor="#ffffff"
     borderopacity="1"
     inkscape:showpageshadow="0"
     inkscape:pageopacity="0"
     inkscape:pagecheckerboard="1"
     inkscape:deskcolor="#505050"
     inkscape:zoom="8.46875"
     inkscape:cx="26.332103"
     inkscape:cy="28.516605"
     inkscape:window-width="1920"
     inkscape:window-height="1009"
     inkscape:window-x="1912"
     inkscape:window-y="-8"
     inkscape:window-maximized="1"
     inkscape:current-layer="svg1" />
  <g
     class="layer"
     id="g1"
     transform="matrix(1.3388325,0,0,1.3388325,-3.6142837,2.4951158)">
    <title
       id="title1">Layer 1</title>
    <g
       class="am-weather-cloud-1"
       id="svg_19">
      <path
         d="m 63.7,33.4 c 0,-4.6 -3.7,-8.2 -8.2,-8.2 -1,0 -1.9,0.2 -2.8,0.5 -0.3,-3.4 -3.1,-6.2 -6.6,-6.2 -3.7,0 -6.7,3 -6.7,6.7 0,0.8 0.2,1.6 0.4,2.3 -0.3,-0.1 -0.7,-0.1 -1,-0.1 -3.7,0 -6.7,3 -6.7,6.7 0,3.6 2.9,6.6 6.5,6.7 h 17.2 c 4.4,-0.5 7.9,-4 7.9,-8.4 z"
         fill="#c6deff"
         id="svg_20"
         stroke="#ffffff"
         stroke-linejoin="round"
         stroke-width="1.2"
         transform="translate(-20,-11)" />
    </g>
    <g
       class="am-weather-sun"
       id="svg_2">
      <line
         fill="none"
         id="svg_3"
         stroke="#ffa500"
         stroke-linecap="round"
         stroke-width="2"
         transform="translate(0,9)"
         x1="16"
         x2="16"
         y1="14"
         y2="17" />
      <g
         id="svg_4"
         transform="rotate(45,16,14)">
        <line
           fill="none"
           id="svg_5"
           stroke="#ffa500"
           stroke-linecap="round"
           stroke-width="2"
           transform="translate(0,9)"
           x1="16"
           x2="16"
           y1="14"
           y2="17" />
      </g>
      <g
         id="svg_6"
         transform="rotate(90,16,14)">
        <line
           fill="none"
           id="svg_7"
           stroke="#ffa500"
           stroke-linecap="round"
           stroke-width="2"
           transform="translate(0,9)"
           x1="16"
           x2="16"
           y1="14"
           y2="17" />
      </g>
      <g
         id="svg_8"
         transform="rotate(135,16,14)">
        <line
           fill="none"
           id="svg_9"
           stroke="#ffa500"
           stroke-linecap="round"
           stroke-width="2"
           transform="translate(0,9)"
           x1="16"
           x2="16"
           y1="14"
           y2="17" />
      </g>
      <g
         id="svg_10"
         transform="rotate(180,8,-1)">
        <line
           fill="none"
           id="svg_11"
           stroke="#ffa500"
           stroke-linecap="round"
           stroke-width="2"
           transform="translate(0,9)"
           x1="0"
           x2="0"
           y1="-16"
           y2="-13" />
      </g>
      <g
         id="svg_12"
         transform="rotate(-135,16,14)">
        <line
           fill="none"
           id="svg_13"
           stroke="#ffa500"
           stroke-linecap="round"
           stroke-width="2"
           transform="translate(0,9)"
           x1="16"
           x2="16"
           y1="14"
           y2="17" />
      </g>
      <g
         id="svg_14"
         transform="rotate(-90,16,14)">
        <line
           fill="none"
           id="svg_15"
           stroke="#ffa500"
           stroke-linecap="round"
           stroke-width="2"
           transform="translate(0,9)"
           x1="16"
           x2="16"
           y1="14"
           y2="17" />
      </g>
      <g
         id="svg_16"
         transform="rotate(-45,16,14)">
        <line
           fill="none"
           id="svg_17"
           stroke="#ffa500"
           stroke-linecap="round"
           stroke-width="2"
           transform="translate(0,9)"
           x1="16"
           x2="16"
           y1="14"
           y2="17" />
      </g>
      <circle
         cx="16"
         cy="14"
         fill="#ffa500"
         id="svg_18"
         r="5"
         stroke="#ffa500"
         stroke-width="2" />
    </g>
  </g>
</svg>
