<?xml version="1.0" encoding="UTF-8" standalone="no"?>
<svg
   width="56"
   height="48"
   version="1.1"
   id="svg1"
   sodipodi:docname="MainlyClearNight.svg"
   inkscape:version="1.3.2 (091e20e, 2023-11-25, custom)"
   xmlns:inkscape="http://www.inkscape.org/namespaces/inkscape"
   xmlns:sodipodi="http://sodipodi.sourceforge.net/DTD/sodipodi-0.dtd"
   xmlns="http://www.w3.org/2000/svg"
   xmlns:svg="http://www.w3.org/2000/svg">
  <defs
     id="defs1">
    <filter
       id="blur-5"
       x="-1.3732274"
       y="-1.4103416"
       width="3.7464548"
       height="4.6042064">
      <feGaussianBlur
         in="SourceAlpha"
         stdDeviation="3"
         id="feGaussianBlur1-5" />
      <feOffset
         dx="0"
         dy="4"
         result="offsetblur"
         id="feOffset1-6" />
      <feComponentTransfer
         id="feComponentTransfer1-72">
        <feFuncA
           slope="0.05"
           type="linear"
           id="feFuncA1-0" />
      </feComponentTransfer>
      <feMerge
         id="feMerge2-2">
        <feMergeNode
           id="feMergeNode1-8" />
        <feMergeNode
           in="SourceGraphic"
           id="feMergeNode2-4" />
      </feMerge>
    </filter>
    <filter
       id="blur-5-2"
       x="-1.3732274"
       y="-1.4103416"
       width="3.7464548"
       height="4.6042064">
      <feGaussianBlur
         in="SourceAlpha"
         stdDeviation="3"
         id="feGaussianBlur1-5-8" />
      <feOffset
         dx="0"
         dy="4"
         result="offsetblur"
         id="feOffset1-6-0" />
      <feComponentTransfer
         id="feComponentTransfer1-72-9">
        <feFuncA
           slope="0.05"
           type="linear"
           id="feFuncA1-0-2" />
      </feComponentTransfer>
      <feMerge
         id="feMerge2-2-3">
        <feMergeNode
           id="feMergeNode1-8-1" />
        <feMergeNode
           in="SourceGraphic"
           id="feMergeNode2-4-8" />
      </feMerge>
    </filter>
  </defs>
  <sodipodi:namedview
     id="namedview1"
     pagecolor="#505050"
     bordercolor="#ffffff"
     borderopacity="1"
     inkscape:showpageshadow="0"
     inkscape:pageopacity="0"
     inkscape:pagecheckerboard="1"
     inkscape:deskcolor="#505050"
     inkscape:zoom="11.976621"
     inkscape:cx="23.295385"
     inkscape:cy="30.267301"
     inkscape:window-width="1920"
     inkscape:window-height="1009"
     inkscape:window-x="1912"
     inkscape:window-y="-8"
     inkscape:window-maximized="1"
     inkscape:current-layer="svg1" />
  <g
     id="g1">
    <g
       class="am-weather-cloud-1"
       id="svg_9"
       transform="matrix(1.4098228,0,0,1.4098228,-18.036518,0.85946308)">
      <path
         d="m 45.65,20.69 c 0,-4.6 -3.7,-8.2 -8.2,-8.2 -1,0 -1.9,0.2 -2.8,0.5 -0.3,-3.4 -3.1,-6.2 -6.6,-6.2 -3.7,0 -6.7,3 -6.7,6.7 0,0.8 0.2,1.6 0.4,2.3 -0.3,-0.1 -0.7,-0.1 -1,-0.1 -3.7,0 -6.7,3 -6.7,6.7 0,3.6 2.9,6.6 6.5,6.7 h 17.2 c 4.4,-0.5 7.9,-4 7.9,-8.4 z"
         fill="#c6deff"
         id="svg_10"
         stroke="#ffffff"
         stroke-linejoin="round"
         stroke-width="1.2" />
    </g>
    <g
       id="svg_2"
       transform="matrix(1.1278582,0,0,1.1278582,4.5206468,6.4987543)">
      <g
         class="am-weather-moon-star-1"
         id="svg_3"
         style="display:inline;filter:url(#blur-5)"
         transform="matrix(1.0612237,0,0,1.0612237,38.926518,6.0738812)">
        <polygon
           points="3.3,1.5 4,2.7 5.2,3.3 4,4 3.3,5.2 2.7,4 1.4,3.3 2.7,2.7 "
           fill="#ffa500"
           stroke-miterlimit="11"
           id="polygon2"
           transform="matrix(1.3797692,0,0,1.3797692,-1.1662589,-1.7934906)" />
      </g>
      <g
         class="am-weather-moon-star-1"
         id="svg_5"
         style="display:inline;filter:url(#blur-5-2)"
         transform="matrix(1.0612237,0,0,1.0612237,19.900657,-2.8838197)">
        <polygon
           points="3.3,1.5 4,2.7 5.2,3.3 4,4 3.3,5.2 2.7,4 1.4,3.3 2.7,2.7 "
           fill="#ffa500"
           stroke-miterlimit="11"
           id="polygon2-8"
           transform="matrix(1.3797692,0,0,1.3797692,-1.1662589,-1.7934906)" />
      </g>
      <g
         class="am-weather-moon"
         id="svg_7">
        <path
           d="m 34.5,10.7 c 0,-3.7 2,-6.9 5,-8.7 -1.5,-0.9 -3.2,-1.3 -5,-1.3 -5.5,0 -10,4.5 -10,10 0,5.5 4.5,10 10,10 1.8,0 3.5,-0.5 5,-1.3 -3,-1.7 -5,-5 -5,-8.7 z"
           fill="#ffa500"
           id="svg_8"
           stroke="#ffa500"
           stroke-linejoin="round"
           stroke-width="2" />
      </g>
    </g>
  </g>
</svg>
