<?xml version="1.0"?>
<svg width="56" height="48" xmlns="http://www.w3.org/2000/svg" xmlns:svg="http://www.w3.org/2000/svg" version="1.1">

 <g class="layer">
  <title>Layer 1</title>
  <g class="am-weather-cloud-1" id="svg_9">
   <path d="m45.65,20.69c0,-4.6 -3.7,-8.2 -8.2,-8.2c-1,0 -1.9,0.2 -2.8,0.5c-0.3,-3.4 -3.1,-6.2 -6.6,-6.2c-3.7,0 -6.7,3 -6.7,6.7c0,0.8 0.2,1.6 0.4,2.3c-0.3,-0.1 -0.7,-0.1 -1,-0.1c-3.7,0 -6.7,3 -6.7,6.7c0,3.6 2.9,6.6 6.5,6.7l17.2,0c4.4,-0.5 7.9,-4 7.9,-8.4z" fill="#c6deff" id="svg_10" stroke="#fff" stroke-linejoin="round" stroke-width="1.2"/>
  </g>
  <g id="svg_2" transform="matrix(0.8 0 0 0.8 16 4)">
   <g class="am-weather-moon-star-1" id="svg_3">
    <polygon fill="#ffa500" id="svg_4" points="21.5,0.7999999523162842 22.700000047683716,0.20000004768371582 23.299999952316284,-1 24,0.20000004768371582 25.199999809265137,0.7999999523162842 24,1.5 23.299999952316284,2.6999998092651367 22.700000047683716,1.5 " stroke-miterlimit="10"/>
   </g>
   <g class="am-weather-moon-star-2" id="svg_5">
    <polygon fill="#ffa500" id="svg_6" points="21.5,0.7999999523162842 22.700000047683716,0.20000004768371582 23.299999952316284,-1 24,0.20000004768371582 25.199999809265137,0.7999999523162842 24,1.5 23.299999952316284,2.6999998092651367 22.700000047683716,1.5 " stroke-miterlimit="10" transform="translate(20 10)"/>
   </g>
   <g class="am-weather-moon" id="svg_7">
    <path d="m34.5,10.7c0,-3.7 2,-6.9 5,-8.7c-1.5,-0.9 -3.2,-1.3 -5,-1.3c-5.5,0 -10,4.5 -10,10s4.5,10 10,10c1.8,0 3.5,-0.5 5,-1.3c-3,-1.7 -5,-5 -5,-8.7z" fill="#ffa500" id="svg_8" stroke="#ffa500" stroke-linejoin="round" stroke-width="2"/>
   </g>
  </g>
 </g>
</svg>