<?xml version="1.0" encoding="UTF-8" standalone="no"?>
<!-- (c) ammap.com | SVG weather icons -->

<svg
   width="56"
   height="48"
   version="1.1"
   id="svg7"
   sodipodi:docname="PartlyCloudyNight.svg"
   inkscape:version="1.3.2 (091e20e, 2023-11-25, custom)"
   xmlns:inkscape="http://www.inkscape.org/namespaces/inkscape"
   xmlns:sodipodi="http://sodipodi.sourceforge.net/DTD/sodipodi-0.dtd"
   xmlns="http://www.w3.org/2000/svg"
   xmlns:svg="http://www.w3.org/2000/svg">
  <sodipodi:namedview
     id="namedview7"
     pagecolor="#505050"
     bordercolor="#ffffff"
     borderopacity="1"
     inkscape:showpageshadow="0"
     inkscape:pageopacity="0"
     inkscape:pagecheckerboard="1"
     inkscape:deskcolor="#505050"
     showgrid="false"
     inkscape:zoom="11.976621"
     inkscape:cx="23.879857"
     inkscape:cy="25.007053"
     inkscape:window-width="1920"
     inkscape:window-height="1009"
     inkscape:window-x="1912"
     inkscape:window-y="-8"
     inkscape:window-maximized="1"
     inkscape:current-layer="svg7" />
  <defs
     id="defs2">
    <filter
       id="blur"
       x="-0.19470794"
       y="-0.26086957"
       width="1.3744383"
       height="1.6884058">
      <feGaussianBlur
         in="SourceAlpha"
         stdDeviation="3"
         id="feGaussianBlur1" />
      <feOffset
         dx="0"
         dy="4"
         result="offsetblur"
         id="feOffset1" />
      <feComponentTransfer
         id="feComponentTransfer1">
        <feFuncA
           slope="0.05"
           type="linear"
           id="feFuncA1" />
      </feComponentTransfer>
      <feMerge
         id="feMerge2">
        <feMergeNode
           id="feMergeNode1" />
        <feMergeNode
           in="SourceGraphic"
           id="feMergeNode2" />
      </feMerge>
    </filter>
    <filter
       id="blur-5"
       x="-1.3732274"
       y="-1.4103416"
       width="3.7464548"
       height="4.6042064">
      <feGaussianBlur
         in="SourceAlpha"
         stdDeviation="3"
         id="feGaussianBlur1-5" />
      <feOffset
         dx="0"
         dy="4"
         result="offsetblur"
         id="feOffset1-6" />
      <feComponentTransfer
         id="feComponentTransfer1-72">
        <feFuncA
           slope="0.05"
           type="linear"
           id="feFuncA1-0" />
      </feComponentTransfer>
      <feMerge
         id="feMerge2-2">
        <feMergeNode
           id="feMergeNode1-8" />
        <feMergeNode
           in="SourceGraphic"
           id="feMergeNode2-4" />
      </feMerge>
    </filter>
    <filter
       id="blur-5-7"
       x="-1.3732274"
       y="-1.4103416"
       width="3.7464548"
       height="4.6042064">
      <feGaussianBlur
         in="SourceAlpha"
         stdDeviation="3"
         id="feGaussianBlur1-5-9" />
      <feOffset
         dx="0"
         dy="4"
         result="offsetblur"
         id="feOffset1-6-4" />
      <feComponentTransfer
         id="feComponentTransfer1-72-5">
        <feFuncA
           slope="0.05"
           type="linear"
           id="feFuncA1-0-5" />
      </feComponentTransfer>
      <feMerge
         id="feMerge2-2-7">
        <feMergeNode
           id="feMergeNode1-8-8" />
        <feMergeNode
           in="SourceGraphic"
           id="feMergeNode2-4-0" />
      </feMerge>
    </filter>
  </defs>
  <g
     id="g7"
     transform="matrix(1.0117682,0,0,1.0117682,-0.9436741,0.61843061)">
    <g
       transform="matrix(1.0307786,0,0,1.0307786,28.616154,4.4823039)"
       id="g5"
       style="filter:url(#blur)">
      <g
         class="am-weather-moon-star-1"
         id="g3"
         style="display:inline;filter:url(#blur-5)"
         transform="matrix(1.1611706,0,0,1.1611706,19.297627,8.2066194)">
        <polygon
           points="5.2,3.3 4,4 3.3,5.2 2.7,4 1.4,3.3 2.7,2.7 3.3,1.5 4,2.7 "
           fill="#ffa500"
           stroke-miterlimit="11"
           id="polygon2-8"
           transform="matrix(1.3797692,0,0,1.3797692,-1.1662589,-1.7934906)" />
      </g>
      <g
         class="am-weather-moon-star-1"
         id="g2"
         style="display:inline;filter:url(#blur-5-7)"
         transform="matrix(1.1611706,0,0,1.1611706,-0.95308531,-1.1897111)">
        <polygon
           points="5.2,3.3 4,4 3.3,5.2 2.7,4 1.4,3.3 2.7,2.7 3.3,1.5 4,2.7 "
           fill="#ffa500"
           stroke-miterlimit="11"
           id="polygon2"
           transform="matrix(1.3797692,0,0,1.3797692,-1.1662589,-1.7934906)" />
      </g>
      <g
         class="am-weather-moon"
         id="g4"
         style="filter:url(#blur)">
        <path
           d="m 14.5,13.2 c 0,-3.7 2,-6.9 5,-8.7 -1.5,-0.9 -3.2,-1.3 -5,-1.3 -5.5,0 -10,4.5 -10,10 0,5.5 4.5,10 10,10 1.8,0 3.5,-0.5 5,-1.3 -3,-1.7 -5,-5 -5,-8.7 z"
           fill="#ffa500"
           stroke="#ffa500"
           stroke-linejoin="round"
           stroke-width="2"
           id="path3" />
      </g>
    </g>
    <g
       class="am-weather-cloud-1"
       id="g6"
       transform="matrix(1.2884733,0,0,1.2884733,8.0005811,-0.67158929)"
       style="display:inline;filter:url(#blur)">
      <path
         transform="translate(-20,-11)"
         d="m 47.7,35.4 c 0,-4.6 -3.7,-8.2 -8.2,-8.2 -1,0 -1.9,0.2 -2.8,0.5 -0.3,-3.4 -3.1,-6.2 -6.6,-6.2 -3.7,0 -6.7,3 -6.7,6.7 0,0.8 0.2,1.6 0.4,2.3 -0.3,-0.1 -0.7,-0.1 -1,-0.1 -3.7,0 -6.7,3 -6.7,6.7 0,3.6 2.9,6.6 6.5,6.7 h 17.2 c 4.4,-0.5 7.9,-4 7.9,-8.4 z"
         fill="#c6deff"
         stroke="#ffffff"
         stroke-linejoin="round"
         stroke-width="1.2"
         id="path5" />
    </g>
  </g>
</svg>
