<?xml version="1.0"?>
<svg width="56" height="48" xmlns="http://www.w3.org/2000/svg" xmlns:svg="http://www.w3.org/2000/svg" version="1.1">
 <g class="layer">
  <title>Layer 1</title>
  <g class="am-weather-snow-1" id="svg_4">
   <g fill="none" id="svg_5" stroke="#57a0ee" stroke-linecap="round" transform="translate(3 28)">
    <line id="svg_6" stroke-width="1.2" transform="translate(0 9)" x1="15.75" x2="15.75" y1="-15" y2="-10"/>
    <line id="svg_7" transform="rotate(45 4.886 -8)" x1="15.75" x2="15.75" y1="-15" y2="-10"/>
    <line id="svg_8" transform="rotate(90 11.25 -8)" x1="15.75" x2="15.75" y1="-15" y2="-10"/>
    <line id="svg_9" transform="rotate(135 13.886 -8)" x1="15.75" x2="15.75" y1="-15" y2="-10"/>
   </g>
  </g>
  <g class="am-weather-snow-2" id="svg_10">
   <g fill="none" id="svg_11" stroke="#57a0ee" stroke-linecap="round" transform="translate(11 28)">
    <line id="svg_12" stroke-width="1.2" transform="translate(0 9)" x1="16.25" x2="16.25" y1="-15" y2="-10"/>
    <line id="svg_13" transform="rotate(45 5.386 -8)" x1="16.25" x2="16.25" y1="-15" y2="-10"/>
    <line id="svg_14" transform="rotate(90 11.75 -8)" x1="16.25" x2="16.25" y1="-15" y2="-10"/>
    <line id="svg_15" transform="rotate(135 14.386 -8)" x1="16.25" x2="16.25" y1="-15" y2="-10"/>
   </g>
  </g>
  <g class="am-weather-snow-3" id="svg_16">
   <g fill="none" id="svg_17" stroke="#57a0ee" stroke-linecap="round" transform="translate(20 28)">
    <line id="svg_18" stroke-width="1.2" transform="translate(0 9)" x1="15.75" x2="15.75" y1="-15" y2="-10"/>
    <line id="svg_19" transform="rotate(45 4.886 -8)" x1="15.75" x2="15.75" y1="-15" y2="-10"/>
    <line id="svg_20" transform="rotate(90 11.25 -8)" x1="15.75" x2="15.75" y1="-15" y2="-10"/>
    <line id="svg_21" transform="rotate(135 13.886 -8)" x1="15.75" x2="15.75" y1="-15" y2="-10"/>
   </g>
  </g>
 </g>
</svg>