<?xml version="1.0" encoding="UTF-8" standalone="no"?>
<svg
   width="56"
   height="48"
   version="1.1"
   id="svg1"
   sodipodi:docname="SnowFallHeavyIntensity.svg"
   inkscape:version="1.3.2 (091e20e, 2023-11-25, custom)"
   xmlns:inkscape="http://www.inkscape.org/namespaces/inkscape"
   xmlns:sodipodi="http://sodipodi.sourceforge.net/DTD/sodipodi-0.dtd"
   xmlns="http://www.w3.org/2000/svg"
   xmlns:svg="http://www.w3.org/2000/svg">
  <defs
     id="defs1" />
  <sodipodi:namedview
     id="namedview1"
     pagecolor="#505050"
     bordercolor="#ffffff"
     borderopacity="1"
     inkscape:showpageshadow="0"
     inkscape:pageopacity="0"
     inkscape:pagecheckerboard="1"
     inkscape:deskcolor="#505050"
     showgrid="false"
     inkscape:zoom="8.46875"
     inkscape:cx="21.372694"
     inkscape:cy="22.376384"
     inkscape:window-width="1920"
     inkscape:window-height="1009"
     inkscape:window-x="1912"
     inkscape:window-y="-8"
     inkscape:window-maximized="1"
     inkscape:current-layer="svg1" />
  <g
     class="layer"
     id="g1"
     transform="matrix(1.7561056,0,0,1.7561056,-21.189941,-20.192526)">
    <title
       id="title1">Layer 1</title>
    <g
       class="am-weather-snow-1"
       id="svg_4">
      <g
         fill="none"
         id="svg_5"
         stroke="#57a0ee"
         stroke-linecap="round"
         transform="translate(3,28)">
        <line
           id="svg_6"
           stroke-width="1.2"
           transform="translate(0,9)"
           x1="16"
           x2="16"
           y1="-22.5"
           y2="-17.5" />
        <line
           id="svg_7"
           transform="rotate(45,5.136,-15.5)"
           x1="16"
           x2="16"
           y1="-22.5"
           y2="-17.5" />
        <line
           id="svg_8"
           transform="rotate(90,11.5,-15.5)"
           x1="16"
           x2="16"
           y1="-22.5"
           y2="-17.5" />
        <line
           id="svg_9"
           transform="rotate(135,14.136,-15.5)"
           x1="16"
           x2="16"
           y1="-22.5"
           y2="-17.5" />
      </g>
    </g>
    <g
       class="am-weather-snow-2"
       id="svg_10">
      <g
         fill="none"
         id="svg_11"
         stroke="#57a0ee"
         stroke-linecap="round"
         transform="translate(11,28)">
        <line
           id="svg_12"
           stroke-width="1.2"
           transform="translate(0,9)"
           x1="16.5"
           x2="16.5"
           y1="-22.5"
           y2="-17.5" />
        <line
           id="svg_13"
           transform="rotate(45,5.636,-15.5)"
           x1="16.5"
           x2="16.5"
           y1="-22.5"
           y2="-17.5" />
        <line
           id="svg_14"
           transform="rotate(90,12,-15.5)"
           x1="16.5"
           x2="16.5"
           y1="-22.5"
           y2="-17.5" />
        <line
           id="svg_15"
           transform="rotate(135,14.636,-15.5)"
           x1="16.5"
           x2="16.5"
           y1="-22.5"
           y2="-17.5" />
      </g>
    </g>
    <g
       class="am-weather-snow-3"
       id="svg_16">
      <g
         fill="none"
         id="svg_17"
         stroke="#57a0ee"
         stroke-linecap="round"
         transform="translate(20,28)">
        <line
           id="svg_18"
           stroke-width="1.2"
           transform="translate(0,9)"
           x1="16"
           x2="16"
           y1="-22.5"
           y2="-17.5" />
        <line
           id="svg_19"
           transform="rotate(45,5.136,-15.5)"
           x1="16"
           x2="16"
           y1="-22.5"
           y2="-17.5" />
        <line
           id="svg_20"
           transform="rotate(90,11.5,-15.5)"
           x1="16"
           x2="16"
           y1="-22.5"
           y2="-17.5" />
        <line
           id="svg_21"
           transform="rotate(135,14.136,-15.5)"
           x1="16"
           x2="16"
           y1="-22.5"
           y2="-17.5" />
      </g>
    </g>
    <g
       class="am-weather-snow-1"
       id="svg_34">
      <g
         fill="none"
         id="svg_35"
         stroke="#57a0ee"
         stroke-linecap="round"
         transform="translate(3,28)">
        <line
           id="svg_36"
           stroke-width="1.2"
           transform="translate(0,9)"
           x1="16.049999"
           x2="16.049999"
           y1="-14.43"
           y2="-9.4300003" />
        <line
           id="svg_37"
           transform="rotate(45,5.186,-7.42825)"
           x1="16.049999"
           x2="16.049999"
           y1="-14.43"
           y2="-9.4300003" />
        <line
           id="svg_38"
           transform="rotate(90,11.55,-7.42825)"
           x1="16.049999"
           x2="16.049999"
           y1="-14.43"
           y2="-9.4300003" />
        <line
           id="svg_39"
           transform="rotate(135,14.186,-7.42825)"
           x1="16.049999"
           x2="16.049999"
           y1="-14.43"
           y2="-9.4300003" />
      </g>
    </g>
    <g
       class="am-weather-snow-2"
       id="svg_28">
      <g
         fill="none"
         id="svg_29"
         stroke="#57a0ee"
         stroke-linecap="round"
         transform="translate(11,28)">
        <line
           id="svg_30"
           stroke-width="1.2"
           transform="translate(0,9)"
           x1="16.549999"
           x2="16.549999"
           y1="-14.43"
           y2="-9.4300003" />
        <line
           id="svg_31"
           transform="rotate(45,5.686,-7.42825)"
           x1="16.549999"
           x2="16.549999"
           y1="-14.43"
           y2="-9.4300003" />
        <line
           id="svg_32"
           transform="rotate(90,12.05,-7.42825)"
           x1="16.549999"
           x2="16.549999"
           y1="-14.43"
           y2="-9.4300003" />
        <line
           id="svg_33"
           transform="rotate(135,14.686,-7.42825)"
           x1="16.549999"
           x2="16.549999"
           y1="-14.43"
           y2="-9.4300003" />
      </g>
    </g>
    <g
       class="am-weather-snow-3"
       id="svg_22">
      <g
         fill="none"
         id="svg_23"
         stroke="#57a0ee"
         stroke-linecap="round"
         transform="translate(20,28)">
        <line
           id="svg_24"
           stroke-width="1.2"
           transform="translate(0,9)"
           x1="16.049999"
           x2="16.049999"
           y1="-14.43"
           y2="-9.4300003" />
        <line
           id="svg_25"
           transform="rotate(45,5.186,-7.42825)"
           x1="16.049999"
           x2="16.049999"
           y1="-14.43"
           y2="-9.4300003" />
        <line
           id="svg_26"
           transform="rotate(90,11.55,-7.42825)"
           x1="16.049999"
           x2="16.049999"
           y1="-14.43"
           y2="-9.4300003" />
        <line
           id="svg_27"
           transform="rotate(135,14.186,-7.42825)"
           x1="16.049999"
           x2="16.049999"
           y1="-14.43"
           y2="-9.4300003" />
      </g>
    </g>
    <g
       class="am-weather-snow-1"
       id="svg_49">
      <g
         fill="none"
         id="svg_50"
         stroke="#57a0ee"
         stroke-linecap="round"
         transform="translate(3,28)">
        <line
           id="svg_51"
           stroke-width="1.2"
           transform="translate(0,9)"
           x1="16.049999"
           x2="16.049999"
           y1="-6.6799998"
           y2="-1.6799999" />
        <line
           id="svg_52"
           transform="rotate(45,5.186,0.323501)"
           x1="16.049999"
           x2="16.049999"
           y1="-6.6799998"
           y2="-1.6799999" />
        <line
           id="svg_53"
           transform="rotate(90,11.55,0.3235)"
           x1="16.049999"
           x2="16.049999"
           y1="-6.6799998"
           y2="-1.6799999" />
        <line
           id="svg_54"
           transform="rotate(135,14.186,0.323501)"
           x1="16.049999"
           x2="16.049999"
           y1="-6.6799998"
           y2="-1.6799999" />
      </g>
    </g>
    <g
       class="am-weather-snow-2"
       id="svg_43">
      <g
         fill="none"
         id="svg_44"
         stroke="#57a0ee"
         stroke-linecap="round"
         transform="translate(11,28)">
        <line
           id="svg_45"
           stroke-width="1.2"
           transform="translate(0,9)"
           x1="16.549999"
           x2="16.549999"
           y1="-6.6799998"
           y2="-1.6799999" />
        <line
           id="svg_46"
           transform="rotate(45,5.686,0.323501)"
           x1="16.549999"
           x2="16.549999"
           y1="-6.6799998"
           y2="-1.6799999" />
        <line
           id="svg_47"
           transform="rotate(90,12.05,0.3235)"
           x1="16.549999"
           x2="16.549999"
           y1="-6.6799998"
           y2="-1.6799999" />
        <line
           id="svg_48"
           transform="rotate(135,14.686,0.323501)"
           x1="16.549999"
           x2="16.549999"
           y1="-6.6799998"
           y2="-1.6799999" />
      </g>
    </g>
    <g
       class="am-weather-snow-3"
       id="svg_1">
      <g
         fill="none"
         id="svg_2"
         stroke="#57a0ee"
         stroke-linecap="round"
         transform="translate(20,28)">
        <line
           id="svg_3"
           stroke-width="1.2"
           transform="translate(0,9)"
           x1="16.049999"
           x2="16.049999"
           y1="-6.6799998"
           y2="-1.6799999" />
        <line
           id="svg_40"
           transform="rotate(45,5.186,0.323501)"
           x1="16.049999"
           x2="16.049999"
           y1="-6.6799998"
           y2="-1.6799999" />
        <line
           id="svg_41"
           transform="rotate(90,11.55,0.3235)"
           x1="16.049999"
           x2="16.049999"
           y1="-6.6799998"
           y2="-1.6799999" />
        <line
           id="svg_42"
           transform="rotate(135,14.186,0.323501)"
           x1="16.049999"
           x2="16.049999"
           y1="-6.6799998"
           y2="-1.6799999" />
      </g>
    </g>
  </g>
</svg>
