<?xml version="1.0" encoding="UTF-8" standalone="no"?>
<!-- (c) ammap.com | SVG weather icons -->

<!-- Scattered Thunderstorms | Contributed by hsoJ95 on GitHub: https://github.com/hsoj95 -->

<svg
   width="56"
   height="48"
   version="1.1"
   id="svg4"
   sodipodi:docname="ThunderstormSlightOrModerate.svg"
   inkscape:version="1.3.2 (091e20e, 2023-11-25, custom)"
   xmlns:inkscape="http://www.inkscape.org/namespaces/inkscape"
   xmlns:sodipodi="http://sodipodi.sourceforge.net/DTD/sodipodi-0.dtd"
   xmlns="http://www.w3.org/2000/svg"
   xmlns:svg="http://www.w3.org/2000/svg">
  <sodipodi:namedview
     id="namedview4"
     pagecolor="#505050"
     bordercolor="#ffffff"
     borderopacity="1"
     inkscape:showpageshadow="0"
     inkscape:pageopacity="0"
     inkscape:pagecheckerboard="1"
     inkscape:deskcolor="#505050"
     showgrid="false"
     inkscape:zoom="8.46875"
     inkscape:cx="23.616236"
     inkscape:cy="31.350553"
     inkscape:window-width="1920"
     inkscape:window-height="1009"
     inkscape:window-x="1912"
     inkscape:window-y="-8"
     inkscape:window-maximized="1"
     inkscape:current-layer="svg4" />
  <defs
     id="defs2">
    <filter
       id="blur"
       x="-0.24683544"
       y="-0.22272987"
       width="1.4936709"
       height="1.5536763">
      <feGaussianBlur
         in="SourceAlpha"
         stdDeviation="3"
         id="feGaussianBlur1" />
      <feOffset
         dx="0"
         dy="4"
         result="offsetblur"
         id="feOffset1" />
      <feComponentTransfer
         id="feComponentTransfer1">
        <feFuncA
           slope="0.05"
           type="linear"
           id="feFuncA1" />
      </feComponentTransfer>
      <feMerge
         id="feMerge2">
        <feMergeNode
           id="feMergeNode1" />
        <feMergeNode
           in="SourceGraphic"
           id="feMergeNode2" />
      </feMerge>
    </filter>
  </defs>
  <g
     transform="matrix(1.5200663,0,0,1.5200663,9.3320074,-14.385729)"
     filter="url(#blur)"
     id="g4">
    <g
       class="am-weather-cloud-3"
       id="g2">
      <path
         transform="translate(-20,-11)"
         d="m 47.7,35.4 c 0,-4.6 -3.7,-8.2 -8.2,-8.2 -1,0 -1.9,0.2 -2.8,0.5 -0.3,-3.4 -3.1,-6.2 -6.6,-6.2 -3.7,0 -6.7,3 -6.7,6.7 0,0.8 0.2,1.6 0.4,2.3 -0.3,-0.1 -0.7,-0.1 -1,-0.1 -3.7,0 -6.7,3 -6.7,6.7 0,3.6 2.9,6.6 6.5,6.7 h 17.2 c 4.4,-0.5 7.9,-4 7.9,-8.4 z"
         fill="#57a0ee"
         stroke="#ffffff"
         stroke-linejoin="round"
         stroke-width="1.2"
         id="path2" />
    </g>
    <g
       class="am-weather-lightning"
       transform="matrix(1.2,0,0,1.2,-4,28)"
       id="g3">
      <polygon
         class="am-weather-stroke"
         points="14.9,6.9 11.1,6.9 14.3,-2.9 20.5,-2.9 16.4,4.3 20.3,4.3 11.5,14.6 "
         fill="#ffa500"
         stroke="#ffffff"
         id="polygon2" />
    </g>
  </g>
</svg>
