<?xml version="1.0"?>
<svg width="56" height="48" xmlns="http://www.w3.org/2000/svg" xmlns:svg="http://www.w3.org/2000/svg" version="1.1">
 <g class="layer">
  <title>Layer 1</title>
  <g id="svg_1">
   <g class="am-weather-cloud-3" id="svg_2">
    <path d="m63.7,33.4c0,-4.6 -3.7,-8.2 -8.2,-8.2c-1,0 -1.9,0.2 -2.8,0.5c-0.3,-3.4 -3.1,-6.2 -6.6,-6.2c-3.7,0 -6.7,3 -6.7,6.7c0,0.8 0.2,1.6 0.4,2.3c-0.3,-0.1 -0.7,-0.1 -1,-0.1c-3.7,0 -6.7,3 -6.7,6.7c0,3.6 2.9,6.6 6.5,6.7l17.2,0c4.4,-0.5 7.9,-4 7.9,-8.4z" fill="#57a0ee" id="svg_3" stroke="#fff" stroke-linejoin="round" stroke-width="1.2" transform="translate(-20 -11)"/>
   </g>
   <g class="am-weather-lightning" id="svg_4" transform="matrix(1.2 0 0 1.2 -4 28)">
    <polygon class="am-weather-stroke" fill="#ffa500" id="svg_5" points="24.43333339691162,5.233333468437195 27.633333206176758,-4.5666667222976685 33.833333015441895,-4.5666667222976685 29.733332633972168,2.6333335638046265 33.63333225250244,2.6333335638046265 24.833333015441895,12.93333375453949 28.233332633972168,5.233333468437195 " stroke="#fff"/>
   </g>
   <g class="am-weather-sleet" fill="none" id="svg_6" stroke="#57a0ee" stroke-dasharray="0.1, 7" stroke-linecap="round" stroke-width="2" transform="rotate(20 18.7755 37.206)">
    <line id="svg_7" transform="translate(-5 1)" x1="21.69" x2="21.69" y1="33.11" y2="41.31"/>
    <line id="svg_8" transform="translate(0 -1)" x1="21.69" x2="21.69" y1="33.11" y2="41.31"/>
   </g>
  </g>
 </g>
</svg>