<?xml version="1.0" encoding="UTF-8" standalone="no"?>
<svg
   width="56"
   height="48"
   version="1.1"
   id="svg1"
   sodipodi:docname="ThunderstormWithHail.svg"
   inkscape:version="1.3.2 (091e20e, 2023-11-25, custom)"
   xmlns:inkscape="http://www.inkscape.org/namespaces/inkscape"
   xmlns:sodipodi="http://sodipodi.sourceforge.net/DTD/sodipodi-0.dtd"
   xmlns="http://www.w3.org/2000/svg"
   xmlns:svg="http://www.w3.org/2000/svg">
  <defs
     id="defs1" />
  <sodipodi:namedview
     id="namedview1"
     pagecolor="#505050"
     bordercolor="#ffffff"
     borderopacity="1"
     inkscape:showpageshadow="0"
     inkscape:pageopacity="0"
     inkscape:pagecheckerboard="1"
     inkscape:deskcolor="#505050"
     showgrid="false"
     inkscape:zoom="5.9883106"
     inkscape:cx="8.0156163"
     inkscape:cy="29.140105"
     inkscape:window-width="1920"
     inkscape:window-height="1009"
     inkscape:window-x="1912"
     inkscape:window-y="-8"
     inkscape:window-maximized="1"
     inkscape:current-layer="svg1" />
  <g
     class="layer"
     id="g1"
     transform="matrix(1.3756303,0,0,1.3756303,-9.4965009,-10.649112)">
    <title
       id="title1">Layer 1</title>
    <g
       id="svg_1">
      <g
         class="am-weather-cloud-3"
         id="svg_2">
        <path
           d="m 63.7,33.4 c 0,-4.6 -3.7,-8.2 -8.2,-8.2 -1,0 -1.9,0.2 -2.8,0.5 -0.3,-3.4 -3.1,-6.2 -6.6,-6.2 -3.7,0 -6.7,3 -6.7,6.7 0,0.8 0.2,1.6 0.4,2.3 -0.3,-0.1 -0.7,-0.1 -1,-0.1 -3.7,0 -6.7,3 -6.7,6.7 0,3.6 2.9,6.6 6.5,6.7 h 17.2 c 4.4,-0.5 7.9,-4 7.9,-8.4 z"
           fill="#57a0ee"
           id="svg_3"
           stroke="#ffffff"
           stroke-linejoin="round"
           stroke-width="1.2"
           transform="translate(-20,-11)" />
      </g>
      <g
         class="am-weather-lightning"
         id="svg_4"
         transform="matrix(1.2,0,0,1.2,-4,28)">
        <polygon
           class="am-weather-stroke"
           fill="#ffa500"
           id="svg_5"
           points="33.633332,2.6333336 24.833333,12.933334 28.233333,5.2333335 24.433333,5.2333335 27.633333,-4.5666667 33.833333,-4.5666667 29.733333,2.6333336 "
           stroke="#ffffff" />
      </g>
      <g
         class="am-weather-sleet"
         fill="none"
         id="svg_6"
         stroke="#57a0ee"
         stroke-dasharray="0.1, 7"
         stroke-linecap="round"
         stroke-width="2"
         transform="rotate(20,18.7755,37.206)">
        <line
           id="svg_7"
           transform="translate(-5,1)"
           x1="21.690001"
           x2="21.690001"
           y1="33.110001"
           y2="41.310001" />
        <line
           id="svg_8"
           transform="translate(0,-1)"
           x1="21.690001"
           x2="21.690001"
           y1="33.110001"
           y2="41.310001" />
      </g>
    </g>
  </g>
</svg>
