<?xml version="1.0" encoding="UTF-8" standalone="no"?>
<svg
   width="15"
   height="15"
   fill="#57A0EE"
   version="1.1"
   id="Capa_1"
   viewBox="0 0 371.409 371.409"
   xml:space="preserve"
   sodipodi:docname="WaterDrop.svg"
   inkscape:version="1.3.2 (091e20e, 2023-11-25, custom)"
   xmlns:inkscape="http://www.inkscape.org/namespaces/inkscape"
   xmlns:sodipodi="http://sodipodi.sourceforge.net/DTD/sodipodi-0.dtd"
   xmlns="http://www.w3.org/2000/svg"
   xmlns:svg="http://www.w3.org/2000/svg"><defs
   id="defs1" /><sodipodi:namedview
   id="namedview1"
   pagecolor="#505050"
   bordercolor="#ffffff"
   borderopacity="1"
   inkscape:showpageshadow="0"
   inkscape:pageopacity="0"
   inkscape:pagecheckerboard="1"
   inkscape:deskcolor="#505050"
   showgrid="false"
   inkscape:zoom="11.976621"
   inkscape:cx="24.631321"
   inkscape:cy="23.003149"
   inkscape:window-width="1920"
   inkscape:window-height="1009"
   inkscape:window-x="1912"
   inkscape:window-y="-8"
   inkscape:window-maximized="1"
   inkscape:current-layer="Capa_1" />
	
	
	<g
   id="SVGRepo_iconCarrier">
		<g
   id="g1">
			<path
   d="M270.265,149.448c-36.107-47.124-70.38-78.948-73.439-141.372c0-1.836-0.612-3.06-1.836-4.284 c-0.612-3.06-3.672-4.896-6.732-3.06c-3.672,0-6.731,2.448-6.731,6.732c-77.112,83.232-207.468,294.372-43.452,354.959 c74.052,27.541,157.896-9.791,172.584-90.576C318.614,228.396,295.969,182.497,270.265,149.448z M138.686,323.256 c-17.748-10.404-28.764-31.211-34.272-49.572c-2.448-9.18-3.672-18.359-3.06-27.539c3.672-15.912,8.568-31.213,14.076-46.512 c3.06,13.463,9.18,26.928,17.748,36.719c19.584,21.422,59.364,34.273,70.38,61.201c6.732,16.523-19.584,30.6-30.6,34.271 C161.33,335.496,148.477,329.377,138.686,323.256z"
   id="path1">
			</path>
		</g>
	</g>
</svg>
